<svg xmlns="http://www.w3.org/2000/svg" viewBox="0 0 1600 900"><defs><linearGradient id="sky" x1="0" y1="0" x2="1" y2="1"><stop offset="0" stop-color="#dcecff"/><stop offset="1" stop-color="#fff6d8"/></linearGradient><linearGradient id="glass" x1="0" y1="0" x2="0" y2="1"><stop offset="0" stop-color="#9dc7ff"/><stop offset="1" stop-color="#3878cb"/></linearGradient></defs><rect width="1600" height="900" fill="url(#sky)"/><circle cx="1360" cy="140" r="82" fill="#ffc107" opacity=".85"/><path d="M0 680c150-60 296-88 438-84 219 7 307 95 507 92 190-3 310-90 480-76 69 6 127 26 175 53v235H0Z" fill="#d8efe3"/><rect x="202" y="176" width="1010" height="474" rx="18" fill="#fff"/><rect x="262" y="240" width="226" height="126" rx="8" fill="url(#glass)"/><rect x="530" y="240" width="226" height="126" rx="8" fill="url(#glass)"/><rect x="798" y="240" width="226" height="126" rx="8" fill="url(#glass)"/><rect x="262" y="406" width="226" height="126" rx="8" fill="url(#glass)"/><rect x="530" y="406" width="226" height="126" rx="8" fill="url(#glass)"/><rect x="798" y="406" width="226" height="126" rx="8" fill="url(#glass)"/><rect x="1110" y="264" width="254" height="386" rx="18" fill="#0d6efd"/><rect x="1186" y="442" width="102" height="208" rx="48" fill="#13213c"/><rect x="164" y="630" width="1236" height="42" fill="#13213c"/><g transform="translate(420 560)"><circle cx="54" cy="0" r="31" fill="#8d5524"/><path d="M18 61c6-45 66-45 72 0l12 94H6Z" fill="#0d6efd"/><rect x="27" y="151" width="18" height="76" fill="#13213c"/><rect x="63" y="151" width="18" height="76" fill="#13213c"/></g><g transform="translate(560 535)"><circle cx="58" cy="0" r="32" fill="#c68642"/><path d="M20 64c7-48 69-48 76 0l15 108H5Z" fill="#ffc107"/><rect x="30" y="168" width="19" height="82" fill="#13213c"/><rect x="70" y="168" width="19" height="82" fill="#13213c"/></g><g transform="translate(735 565)"><circle cx="50" cy="0" r="28" fill="#a36a39"/><path d="M15 58c7-42 63-42 70 0l12 88H3Z" fill="#fff"/><rect x="26" y="145" width="17" height="70" fill="#13213c"/><rect x="60" y="145" width="17" height="70" fill="#13213c"/><path d="M18 92h64" stroke="#0d6efd" stroke-width="16" stroke-linecap="round"/></g><g transform="translate(960 536)"><circle cx="58" cy="0" r="32" fill="#6f3f25"/><path d="M18 63c7-47 73-47 80 0l12 110H6Z" fill="#2b8a3e"/><rect x="31" y="168" width="19" height="84" fill="#13213c"/><rect x="70" y="168" width="19" height="84" fill="#13213c"/></g></svg>