<svg xmlns="http://www.w3.org/2000/svg" viewBox="0 0 1200 720"><rect width="1200" height="720" fill="#eaf3ff"/><rect x="90" y="96" width="1020" height="480" rx="20" fill="#fff"/><rect x="158" y="158" width="270" height="180" rx="14" fill="#13213c"/><rect x="188" y="188" width="210" height="120" rx="8" fill="#9dc7ff"/><rect x="480" y="158" width="270" height="180" rx="14" fill="#13213c"/><rect x="510" y="188" width="210" height="120" rx="8" fill="#d8f3dc"/><path d="M860 166h90v142c0 25-20 45-45 45s-45-20-45-45Z" fill="#ffc107"/><path d="M870 246h70" stroke="#13213c" stroke-width="16" stroke-linecap="round"/><path d="M1000 170h52l-26 92Z" fill="#0d6efd"/><rect x="150" y="430" width="900" height="58" rx="12" fill="#0d6efd"/><rect x="208" y="488" width="42" height="126" fill="#13213c"/><rect x="950" y="488" width="42" height="126" fill="#13213c"/><circle cx="340" cy="392" r="30" fill="#ffc107"/><circle cx="418" cy="392" r="30" fill="#0d6efd"/><circle cx="496" cy="392" r="30" fill="#2b8a3e"/></svg>