<svg xmlns="http://www.w3.org/2000/svg" viewBox="0 0 1200 720"><rect width="1200" height="720" fill="#f8f9fa"/><rect x="80" y="70" width="1040" height="520" rx="18" fill="#fff"/><rect x="130" y="132" width="230" height="356" fill="#13213c"/><rect x="410" y="132" width="230" height="356" fill="#13213c"/><rect x="690" y="132" width="230" height="356" fill="#13213c"/><g fill="#ffc107"><rect x="154" y="164" width="28" height="278"/><rect x="196" y="164" width="28" height="278"/><rect x="238" y="164" width="28" height="278"/><rect x="280" y="164" width="28" height="278"/><rect x="434" y="164" width="28" height="278"/><rect x="476" y="164" width="28" height="278"/><rect x="518" y="164" width="28" height="278"/><rect x="560" y="164" width="28" height="278"/><rect x="714" y="164" width="28" height="278"/><rect x="756" y="164" width="28" height="278"/><rect x="798" y="164" width="28" height="278"/><rect x="840" y="164" width="28" height="278"/></g><rect x="176" y="530" width="720" height="42" rx="8" fill="#0d6efd"/><rect x="242" y="572" width="34" height="96" fill="#13213c"/><rect x="796" y="572" width="34" height="96" fill="#13213c"/><circle cx="990" cy="226" r="58" fill="#0d6efd" opacity=".15"/><rect x="952" y="288" width="80" height="178" rx="14" fill="#0d6efd"/></svg>