<svg xmlns="http://www.w3.org/2000/svg" viewBox="0 0 900 640"><rect width="900" height="640" fill="#f8f9fa"/><rect x="70" y="70" width="760" height="500" rx="24" fill="#fff"/><rect x="118" y="126" width="360" height="270" rx="18" fill="#e7f0ff"/><rect x="522" y="126" width="260" height="46" rx="10" fill="#0d6efd"/><rect x="522" y="204" width="260" height="32" rx="8" fill="#d8e7ff"/><rect x="522" y="260" width="210" height="32" rx="8" fill="#fff0b7"/><rect x="522" y="316" width="240" height="32" rx="8" fill="#d8f3dc"/><rect x="522" y="398" width="170" height="52" rx="10" fill="#ffc107"/><g transform="translate(170 190)"><circle cx="82" cy="40" r="39" fill="#8d5524"/><path d="M29 139c9-78 97-78 106 0v106H29Z" fill="#0d6efd"/><rect x="6" y="214" width="152" height="36" rx="8" fill="#13213c"/></g><g transform="translate(306 205)"><circle cx="72" cy="36" r="35" fill="#c68642"/><path d="M20 134c8-72 95-72 103 0v102H20Z" fill="#ffc107"/><rect x="0" y="204" width="148" height="36" rx="8" fill="#13213c"/></g><rect x="236" y="410" width="272" height="96" rx="14" fill="#13213c"/><rect x="264" y="432" width="216" height="52" rx="8" fill="#9dc7ff"/></svg>